<svg id="Layer_2" data-name="Layer 2" xmlns="http://www.w3.org/2000/svg" width="949.38951" height="942.06959" viewBox="0 0 949.38951 942.06959">
  <defs>
    <style>
      .cls-1 {
        fill: #fff;
      }
    </style>
  </defs>
  <circle class="cls-1" cx="380.74268" cy="82.23108" r="69.0626"/>
  <circle class="cls-1" cx="866.74195" cy="379.87088" r="69.0626"/>
  <circle class="cls-1" cx="569.15292" cy="858.1852" r="69.0626"/>
  <circle class="cls-1" cx="84.38687" cy="561.25003" r="69.0626"/>
  <circle class="cls-1" cx="543.38402" cy="117.71836" r="57.16281"/>
  <circle class="cls-1" cx="729.70044" cy="824.61019" r="57.16281"/>
  <circle class="cls-1" cx="831.1595" cy="542.39863" r="57.16281"/>
  <circle class="cls-1" cx="833.40967" cy="219.35938" r="57.16281"/>
  <circle class="cls-1" cx="406.09792" cy="824.61019" r="57.16281"/>
  <circle class="cls-1" cx="119.50876" cy="398.01168" r="57.16281"/>
  <circle class="cls-1" cx="119.50876" cy="719.32801" r="57.16281"/>
  <circle class="cls-1" cx="220.17222" cy="117.94702" r="57.16281"/>
  <circle class="cls-1" cx="658.27299" cy="204.7899" r="37.31001"/>
  <circle class="cls-1" cx="204.67091" cy="282.61168" r="37.31001"/>
  <circle class="cls-1" cx="204.38341" cy="837.47714" r="37.31001"/>
  <circle class="cls-1" cx="745.43497" cy="657.91759" r="37.31001"/>
  <circle class="cls-1" cx="290.95417" cy="736.92497" r="37.31001"/>
  <circle class="cls-1" cx="745.43497" cy="104.21803" r="37.31001"/>
  <circle class="cls-1" cx="846.14412" cy="737.71667" r="37.31001"/>
  <circle class="cls-1" cx="104.0936" cy="204.7899" r="37.31001"/>
  <circle class="cls-1" cx="300.89218" cy="221.29576" r="22.18959"/>
  <circle class="cls-1" cx="229.8889" cy="641.55034" r="22.18959"/>
  <circle class="cls-1" cx="648.44382" cy="719.32801" r="22.18959"/>
  <circle class="cls-1" cx="720.97877" cy="299.10429" r="22.18959"/>
  <circle class="cls-1" cx="911.97193" cy="641.55034" r="22.18959"/>
  <circle class="cls-1" cx="648.44382" cy="36.97214" r="22.18959"/>
  <circle class="cls-1" cx="39.08238" cy="298.84826" r="22.18959"/>
  <circle class="cls-1" cx="301.0308" cy="903.70118" r="22.18959"/>
  <circle class="cls-1" cx="575.70045" cy="743.45714" r="14.82179"/>
  <circle class="cls-1" cx="745.43497" cy="373.3894" r="14.82179"/>
  <circle class="cls-1" cx="934.56772" cy="567.09585" r="14.82179"/>
  <circle class="cls-1" cx="374.6003" cy="927.2478" r="14.82179"/>
  <circle class="cls-1" cx="207.69931" cy="567.09585" r="14.82179"/>
  <circle class="cls-1" cx="14.82179" cy="373.3894" r="14.82179"/>
  <circle class="cls-1" cx="375.67687" cy="197.80656" r="14.82179"/>
  <circle class="cls-1" cx="575.33436" cy="14.82179" r="14.82179"/>
</svg>
