<?xml version="1.0" standalone="no"?>
<!DOCTYPE svg PUBLIC "-//W3C//DTD SVG 20010904//EN"
 "http://www.w3.org/TR/2001/REC-SVG-20010904/DTD/svg10.dtd">
<svg version="1.0" xmlns="http://www.w3.org/2000/svg"
 width="700.000000pt" height="700.000000pt" viewBox="0 0 700.000000 700.000000"
 preserveAspectRatio="xMidYMid meet">
<metadata>
Created by potrace 1.14, written by Peter Selinger 2001-2017
</metadata>
<g transform="translate(0.000000,700.000000) scale(0.100000,-0.100000)"
fill="#000000" stroke="none">
<path d="M587 6604 c-1 -1 -26 -5 -55 -8 -115 -14 -246 -76 -333 -158 -81 -76
-126 -147 -173 -268 l-21 -55 -3 -1935 c-2 -1932 -2 -1935 19 -2010 56 -204
188 -345 404 -432 63 -25 167 -27 1154 -28 574 0 1047 -2 1052 -5 9 -6 11
-895 1 -896 -4 0 -313 -2 -687 -3 -722 -2 -710 -1 -765 -48 -87 -73 -92 -225
-10 -303 67 -64 -102 -60 2350 -60 l2225 0 35 22 c19 12 47 34 61 50 85 92 63
241 -46 308 l-48 30 -692 3 -692 2 1 448 1 447 1051 2 c1158 2 1107 -1 1239
65 61 30 148 92 175 125 84 102 139 204 159 301 8 38 11 596 11 1955 0 1600
-3 1913 -14 1969 -47 221 -221 400 -451 464 -56 16 -280 17 -3003 18 -1619 1
-2944 0 -2945 0z"/>
</g>
</svg>
