<svg id="Layer_1" data-name="Layer 1" xmlns="http://www.w3.org/2000/svg" width="2231.92576" height="2499.98898" viewBox="0 0 2231.92576 2499.98898">
  <defs>
    <style>
      .cls-1, .cls-2 {
        fill: #77c159;
      }

      .cls-2 {
        stroke: #77c159;
        stroke-linecap: round;
        stroke-linejoin: round;
        stroke-width: 32.87239px;
      }

      .cls-3 {
        fill: #fff;
      }
    </style>
  </defs>
  <path class="cls-1" d="M764.008,1518.51809a156.04649,156.04649,0,0,1,156.04521,156.0452v669.39156a156.03973,156.03973,0,0,1-312.07946,0V1674.56346A156.04183,156.04183,0,0,1,764.008,1518.52912Z" transform="translate(-0.04269 -0.00004)"/>
  <path class="cls-1" d="M407.76994,713.72538c-.515,5.917-.96423,11.89979-.96423,17.94833V1745.86355c0,109.07053,86.33383,196.93839,193.50875,196.93839H1631.67483c107.18588,0,193.51971-87.8789,193.51971-196.93839v-1014.19c0-6.04854-.2192-12.05327-.72313-17.94833H407.76994Z" transform="translate(-0.04269 -0.00004)"/>
  <path class="cls-1" d="M1468.00307,1518.51809a156.04643,156.04643,0,0,1,156.0452,156.0452v669.39156a156.03977,156.03977,0,0,1-312.07954,0V1674.56346a156.04191,156.04191,0,0,1,156.03434-156.03434ZM156.08794,803.982A156.04415,156.04415,0,0,1,312.1222,960.0272v669.3914a156.03975,156.03975,0,1,1-312.0795.01086V960.03807A156.04178,156.04178,0,0,1,156.08794,803.98183Zm1919.84618,0a156.04423,156.04423,0,0,1,156.03434,156.0452v669.3914a156.03978,156.03978,0,0,1-312.07955.01086V960.03807a156.05586,156.05586,0,0,1,156.04521-156.05624ZM412.32824,647.104c4.3392-311.52068,276.23764-566.93921,625.25482-600.60043h156.82317C1543.44531,80.17581,1815.32185,335.60529,1819.661,647.104Z" transform="translate(-0.04269 -0.00004)"/>
  <path class="cls-2" d="M466.60051,16.43623,631.20356,301.54947m1134.218-285.11324L1600.80764,301.54947" transform="translate(-0.04269 -0.00004)"/>
  <path class="cls-3" d="M906.37832,367.92969c.1315,43.54494-35.90761,78.94854-80.50448,79.06909-44.575.1096-80.82225-35.08584-80.95375-78.63079v-.4383c-.12055-43.5559,35.91856-78.94855,80.50449-79.0691,44.575-.12055,80.82224,35.06385,80.95374,78.63079Zm602.61659,0c.13142,43.54494-35.90753,78.94854-80.50448,79.06909-44.57489.1096-80.82233-35.08584-80.95375-78.63079v-.4383c-.12055-43.5559,35.91856-78.94855,80.50449-79.0691,44.57488-.12055,80.82232,35.06385,80.95374,78.63079Z" transform="translate(-0.04269 -0.00004)"/>
</svg>
