<svg xmlns="http://www.w3.org/2000/svg" enable-background="new 0 0 24 24" viewBox="0 0 24 24"><linearGradient id="a" x1="-1334.75" x2="-1333.75" y1="32.25" y2="32.25" gradientTransform="matrix(12 0 0 -12 16023.003 399)" gradientUnits="userSpaceOnUse"><stop offset="0" stop-color="#9c27b0"/><stop offset="1" stop-color="#ff9800"/></linearGradient><path fill="url(#a)" d="M8.011,18.624l-1.069,2.363C6.628,21.955,6.314,22.963,6,24c0.189-0.056,0.302-0.182,0.365-0.354C6.463,23.315,7.062,21.329,8.011,18.624L8.011,18.624z M12.528,15.326c-0.627,0.642-1.333,0.92-2.079,0.92c-0.194,0-0.392-0.019-0.591-0.055l-0.724,0.08l-0.068,0.181c-0.118,0.325-0.237,0.655-0.356,0.993L8.706,17.46l-0.05,0.143c-0.08,0.229-0.15,0.433-0.31,0.899c0.263,0.12,0.475,0.435,0.674,0.794c-0.021-0.371-0.175-0.72-0.467-0.99c0.097,0.004,0.192,0.007,0.287,0.007c1.176,0,2.175-0.346,2.709-1.223c0.052-0.085,0.1-0.174,0.141-0.267c-0.238,0.301-0.527,0.444-1.032,0.444c-0.054,0-0.11-0.002-0.17-0.005c0.903-0.403,1.356-0.791,1.758-1.433C12.342,15.676,12.433,15.511,12.528,15.326L12.528,15.326z M16.173,7.095l-0.094,0.064c-0.243,0.146-0.661,0.278-0.997,0.339l-0.016,0.003l-0.101,0.016l0.017-0.008l-2.043,0.223L9.393,15.57c-0.082,0.22-0.165,0.443-0.248,0.669l-0.01,0.028l0.724-0.08L9.816,16.18c0.864-0.108,2.015-0.752,2.756-1.549c0.342-0.367,0.653-0.799,0.94-1.306c0.214-0.377,0.415-0.796,0.606-1.258c0.167-0.405,0.327-0.842,0.482-1.317c-0.198,0.105-0.426,0.181-0.677,0.234l-0.129,0.025l-0.015,0.002l-0.13,0.022l0.001-0.001c0.807-0.31,1.314-0.908,1.685-1.64c-0.212,0.144-0.557,0.333-0.97,0.424l-0.173,0.031l-0.039,0.007c0.279-0.116,0.515-0.248,0.719-0.401L15,9.351l0.178-0.171l0.106-0.118c0.079-0.095,0.155-0.198,0.225-0.309l0.063-0.105l0.077-0.151c0.112-0.226,0.203-0.427,0.275-0.605l0.094-0.246l0.031-0.089l0.07-0.226C16.148,7.23,16.163,7.152,16.173,7.095L16.173,7.095z M16.628,0c-0.067,0-0.135,0.009-0.205,0.03L14.66,3.928c0.168-0.26,0.338-0.512,0.509-0.755l0-0.001c0.417-0.596,0.841-1.128,1.268-1.606c-0.24,0.289-0.642,0.809-1.18,1.634c0.281-0.014,0.632-0.048,0.998-0.091c-0.366,0.043-0.715,0.077-0.997,0.091c-0.202,0.31-0.423,0.661-0.661,1.059L14.558,4.32c-0.11,0.186-0.224,0.382-0.342,0.588l-1.277,2.823l2.046-0.224c0.662-0.304,0.958-0.578,1.244-0.976c0.076-0.11,0.153-0.224,0.229-0.343c0.233-0.364,0.462-0.765,0.667-1.162c0.198-0.384,0.372-0.766,0.505-1.109c0.086-0.218,0.153-0.422,0.201-0.599c0.041-0.157,0.074-0.307,0.1-0.45l-0.003,0c0.262-1.47-0.258-2.142-0.258-2.142S17.22,0,16.628,0L16.628,0z"/><linearGradient id="b" x1="-1334.75" x2="-1333.75" y1="32.374" y2="32.374" gradientTransform="matrix(12 0 0 -12 16023.003 399)" gradientUnits="userSpaceOnUse"><stop offset="0" stop-color="#829"/><stop offset="1" stop-color="#de8400"/></linearGradient><path fill="url(#b)" d="M8.038,14.3l-0.014,0.063c-0.112,0.567-0.194,1.131-0.233,1.691l-0.004,0.059c-0.279-0.446-1.023-0.882-1.029-0.882l0,0c0.537,0.777,0.945,1.55,1.005,2.307c-0.062,0.013-0.128,0.019-0.199,0.019c-0.26,0-0.58-0.081-0.938-0.212c0.475,0.436,0.832,0.556,0.97,0.588C7.16,17.96,6.706,18.26,6.249,18.605c0.516-0.211,0.956-0.323,1.308-0.323c0.104,0,0.201,0.01,0.29,0.03c-0.301,0.851-0.603,1.746-0.904,2.676l1.069-2.363c0.107-0.305,0.219-0.62,0.335-0.943c0.032-0.091,0.064-0.181,0.098-0.273l0.028-0.075c0.12-0.333,0.246-0.674,0.374-1.021l0.089-0.238l0.001-0.004L8.038,14.3L8.038,14.3z M12.938,7.732l-0.228,0.025L12.7,7.782L12.622,7.94c-0.077,0.16-0.156,0.322-0.236,0.489c-0.085,0.179-0.172,0.364-0.259,0.552c-0.044,0.095-0.089,0.19-0.134,0.287c-0.133,0.29-0.27,0.589-0.407,0.899c-0.17,0.381-0.341,0.776-0.517,1.186c-0.167,0.391-0.335,0.796-0.506,1.216c-0.163,0.397-0.327,0.808-0.493,1.231c-0.148,0.378-0.299,0.764-0.449,1.163L9.6,15.021c-0.069,0.181-0.138,0.364-0.207,0.549L12.938,7.732L12.938,7.732z M14.216,4.908c-0.1,0.176-0.203,0.359-0.309,0.55c-0.198,0.357-0.404,0.741-0.617,1.154c-0.186,0.361-0.378,0.741-0.576,1.145l0.225-0.025L14.216,4.908L14.216,4.908z M16.423,0.029c-0.063,0.018-0.127,0.046-0.192,0.084c-0.377,0.223-1.004,0.852-1.752,1.763l0.001,0.001l-0.155,0.191c-0.198,0.247-0.404,0.512-0.615,0.793c-0.238,0.316-0.482,0.655-0.731,1.011C12.752,4.2,12.519,4.544,12.286,4.9c-0.198,0.302-0.397,0.615-0.595,0.934L11.669,5.87l0-0.001l-0.043,0.071c-0.209,0.34-0.415,0.687-0.619,1.042c-0.206,0.359-0.408,0.724-0.604,1.094c-0.167,0.312-0.329,0.628-0.487,0.945L9.821,9.214c-0.195,0.4-0.371,0.787-0.53,1.159c-0.181,0.422-0.339,0.823-0.479,1.206c-0.091,0.251-0.175,0.493-0.251,0.727c-0.063,0.199-0.122,0.398-0.178,0.596C8.25,13.37,8.135,13.836,8.04,14.3l0.898,1.77c0.119-0.317,0.24-0.639,0.366-0.964c0.032-0.09,0.068-0.181,0.102-0.272c0.156-0.403,0.317-0.81,0.483-1.223c0.158-0.393,0.321-0.791,0.487-1.189c0.165-0.399,0.336-0.798,0.509-1.197c0.177-0.406,0.357-0.812,0.54-1.217c0.181-0.399,0.366-0.797,0.554-1.19c0.068-0.141,0.136-0.283,0.205-0.424c0.118-0.243,0.238-0.484,0.359-0.723l0.02-0.037v0.001c0.189-0.378,0.383-0.751,0.579-1.116c0.209-0.389,0.421-0.77,0.634-1.141c0.222-0.385,0.446-0.759,0.673-1.119l0.041-0.065c0.057-0.089,0.113-0.178,0.17-0.265L16.423,0.029L16.423,0.029z"/></svg>