<svg id="Layer_1" data-name="Layer 1" xmlns="http://www.w3.org/2000/svg" width="775.71835" height="560.49508" viewBox="0 0 775.71835 560.49508">
  <defs>
    <style>
      .cls-1 {
        fill: gold;
      }
    </style>
  </defs>
  <path class="cls-1" d="M399.99969,697.37106l209.53784.63307L745.53424,271.39267a32.09558,32.09558,0,0,0,9.889,1.69879A32.51717,32.51717,0,1,0,736.992,267.307L580.34536,496.2514l-7.784-167.04792a31.88051,31.88051,0,0,0,3.243.32631,32.70763,32.70763,0,1,0-11.62144-2.23714L481.09065,456.68,405.24822,201.85226a32.43667,32.43667,0,1,0-10.49583,0L318.91,456.68,235.81834,327.29265a32.25368,32.25368,0,1,0-11.62144,2.23714,31.89961,31.89961,0,0,0,3.24237-.32631L219.65539,496.2514,63.00872,267.307a32.39362,32.39362,0,1,0-18.432,5.78444,32.1026,32.1026,0,0,0,9.88965-1.69879L190.46308,698.00413Z" transform="translate(-12.14083 -137.50905)"/>
</svg>
