<svg id="Layer_1" data-name="Layer 1" xmlns="http://www.w3.org/2000/svg" width="2490.32229" height="2428.84763" viewBox="0 0 2490.32229 2428.84763">
  <defs>
    <style>
      .cls-1 {
        fill: #fff;
      }
    </style>
  </defs>
  <g>
    <path class="cls-1" d="M1245.166,0C557.56837,0,0,557.47069,0,1245.166c0,550.15631,356.77735,1016.8945,851.52343,1181.543,62.22658,11.52336,85.0781-27.01179,85.0781-59.90237,0-29.68744-1.16214-127.78327-1.68941-231.82616-346.416,75.32224-419.51173-146.91412-419.51173-146.91412-56.64061-143.92585-138.25193-182.18756-138.25193-182.18756-112.96875-77.28517,8.51565-75.70312,8.51565-75.70312,125.03907,8.789,190.87888,128.32031,190.87888,128.32031,111.0547,190.36129,291.289,135.32221,362.34371,103.51569,11.17185-80.48833,43.44724-135.41013,79.05275-166.50394-276.5625-31.4942-567.30468-138.26177-567.30468-615.37109,0-135.93749,48.64257-247.02147,128.30079-334.21874-12.9297-31.36717-55.54688-158.00782,12.06055-329.52149,0,0,104.56052-33.46678,342.50978,127.63675,99.31639-27.59765,205.83988-41.42578,311.66017-41.89454,105.8203.46876,212.42187,14.29689,311.93361,41.89454,237.66607-161.10353,342.08015-127.63671,342.08015-127.63671,67.77346,171.51363,25.13677,298.15428,12.207,329.52152,79.834,87.19727,128.14447,198.2715,128.14447,334.21874,0,478.24219-291.28909,583.55466-568.5547,614.375,44.65818,38.64258,84.45308,114.42378,84.45308,230.58593,0,166.60154-1.44527,300.69336-1.44527,341.709,0,33.13481,22.41209,71.96292,85.53714,59.73637,494.47268-164.834,850.80072-631.40631,850.80072-1181.37695C2490.32229,557.47069,1932.832,0,1245.166,0"/>
    <path class="cls-1" d="M466.35743,1773.76956c-2.73436,6.1816-12.48047,8.03709-21.3379,3.7989-9.0332-4.0625-14.11133-12.5-11.18165-18.71094,2.68556-6.36712,12.43163-8.14453,21.44531-3.86715,9.05271,4.05267,14.209,12.56838,11.07421,18.77934m61.25,54.64822c-5.93752,5.50776-17.54884,2.94923-25.42969-5.752-8.14453-8.68171-9.668-20.28316-3.64259-25.87885,6.123-5.49808,17.3828-2.92971,25.54688,5.76169,8.14453,8.77931,9.72655,20.31251,3.51564,25.87884m42.03125,69.91223c-7.63673,5.30273-20.1172.332-27.82225-10.74225-7.62694-11.06441-7.62694-24.34567.166-29.66791,7.73437-5.32225,20.01952-.537,27.832,10.44929,7.61718,11.25976,7.61718,24.541-.18555,29.9707m71.06449,80.97649c-6.82615,7.51957-21.35742,5.50777-32.002-4.76569-10.87889-10.03906-13.916-24.28711-7.0703-31.81636,6.9043-7.5391,21.52342-5.41985,32.24611,4.76569,10.81057,10.01954,14.11133,24.375,6.83591,31.81636m91.82617,27.34378c-2.998,9.7461-17.00192,14.17965-31.10349,10.03906-14.082-4.26754-23.3008-15.69331-20.459-25.54685,2.92972-9.8145,16.99217-14.43356,31.20117-10,14.06253,4.248,23.3008,15.58587,20.37108,25.50781m104.52144,11.59176c.35159,10.27346-11.61136,18.789-26.416,18.97454-14.8926.32232-26.93363-7.98821-27.08987-18.086,0-10.37106,11.68944-18.80855,26.57228-19.05278,14.80467-.29295,26.93362,7.959,26.93362,18.16407m102.67578-3.93539c1.77734,10.01954-8.51564,20.31251-23.21288,23.04688-14.45316,2.63676-27.832-3.545-29.67775-13.47661-1.79685-10.27346,8.6914-20.5566,23.11521-23.22272,14.72659-2.55853,27.90041,3.46676,29.77542,13.6523"/>
  </g>
</svg>
