<svg id="Layer_1" data-name="Layer 1" xmlns="http://www.w3.org/2000/svg" width="225" height="225" viewBox="0 0 225 225">
  <defs>
    <style>
      .cls-1 {
        fill: #0350d4;
      }
    </style>
  </defs>
  <path class="cls-1" d="M0,112.5V225H225V0H0ZM120,42.2c5.6,3.9,7.5,7.3,7.5,13.6,0,6.8-2.6,11.2-8.5,14.2-7.3,3.7-15.4,1.9-20.1-4.3-3.2-4.4-3.4-14.2-.3-18.4,3.5-4.8,8.2-7.3,13.4-7.3A13.91107,13.91107,0,0,1,120,42.2Zm1.2,43.5c-.2,1.6-3.8,19.4-7.8,39.8-4.1,20.3-7.4,38.6-7.4,40.7,0,2.9.6,4.1,2.5,5.4,2.4,1.5,2.8,1.5,7.1-.1,6-2.3,16.3-12.3,19.8-19.3,2.8-5.6,2.7-5.5,7.5-4.6l3.1.6-3.8,7.2c-6.9,13.2-20.4,25-32.4,28.2-13.3,3.5-22.8-.1-27.6-10.5-4.2-9.2-3.7-16.1,4.2-54.6,3.7-18.2,6.9-33.6,7.1-34.3.3-.9,4.1-1.2,14.3-1.2h13.9Z" transform="translate(0 0)"/>
</svg>
