<svg id="Layer_1" data-name="Layer 1" xmlns="http://www.w3.org/2000/svg" width="2500.00019" height="2499.99514" viewBox="0 0 2500.00019 2499.99514">
  <defs>
    <style>
      .cls-1 {
        fill: #fff;
      }
    </style>
  </defs>
  <path class="cls-1" d="M1249.99755.00247C559.63844.00247,0,559.64091,0,1250c0,690.359,559.63844,1249.99758,1249.99755,1249.99758,690.359,0,1250.00265-559.63839,1250.00265-1249.99758C2499.99514,559.64091,1940.34663.00247,1249.99755.00247Zm-333.50171,1854.314H642.04609V967.64794H916.49584ZM777.96311,851.53206c-89.6323,0-162.29511-73.25522-162.29511-163.6055,0-90.3603,72.67285-163.61047,162.29511-163.61047s162.28508,73.25017,162.28508,163.61047C940.25325,778.28182,867.59043,851.53206,777.96311,851.53206ZM1944.99566,1854.31644H1671.87643V1388.88905c0-127.6531-48.48866-198.91016-149.42736-198.91016-109.85526,0-167.24544,74.21412-167.24544,198.91016v465.42739H1091.97494V967.64794h263.22869V1087.0673s79.17946-146.46524,267.18993-146.46524c188.01552,0,322.607,114.80044,322.607,352.28873l-.00506,561.42565Z" transform="translate(0 -0.00247)"/>
</svg>
