<svg id="svg2" xmlns="http://www.w3.org/2000/svg" width="252.32144" height="167.19018" viewBox="0 0 252.32144 167.19018">
  <defs>
    <style>
      .cls-1 {
        fill: #fff;
      }
    </style>
  </defs>
  <path id="path2984" class="cls-1" d="M17.49518,208.78375c5.36074-5.449,83.89878-71.96172,84.97225-71.96172.59822,0,5.99861,4.27274,12.00088,9.495,6.56661,5.71325,11.92924,9.495,13.46417,9.495,1.52879,0,7.27665-4.03134,14.34462-10.06081,7.20722-6.14824,12.26018-9.68069,12.99324-9.08336.65974.5376,8.98691,7.62414,18.50478,15.74787,48.18253,41.1249,68.10448,58.30137,68.10448,58.71886,0,.25329-51.10879.46053-113.5751.46053H14.72939ZM1.83929,128.04745c0-42.17422.37679-76.66758.83733-76.6519,1.28026.04357,88.81647,75.1905,89.15256,76.53451.29244,1.16952-85.2193,74.85167-88.35225,76.12971-1.42881.58287-1.63765-9.11033-1.63765-76.0123ZM208.19,166.11264c-23.74878-20.36407-43.50547-37.372-43.90375-37.7954-.65613-.69752,86.25474-75.82112,88.79523-76.75237.68735-.252,1.07925,27.22325,1.07925,75.66327,0,60.09551-.29291,76.04325-1.39558,75.98448-.76757-.04089-20.82639-16.73591-44.57515-37.1ZM82.78311,103.40649C58.22084,82.418,32.74618,60.65417,26.17276,55.04243L14.22108,44.83925l56.88947-.3075c31.2892-.16912,82.48729-.16912,113.77354,0l56.88409.3075L207.08741,74.51111C188.013,90.83063,162.57879,112.59494,150.567,122.87626s-22.1289,18.69278-22.48242,18.69219-20.73917-17.17348-45.30143-38.162Z" transform="translate(-1.83928 -44.40491)"/>
</svg>
