<svg id="OBJECTS" xmlns="http://www.w3.org/2000/svg" width="982.4088" height="1585.2709" viewBox="0 0 982.4088 1585.2709">
  <defs>
    <style>
      .cls-1 {
        fill: #e49b31;
      }

      .cls-2 {
        fill: #fbc343;
      }
    </style>
  </defs>
  <g>
    <g>
      <path class="cls-1" d="M969.77948,515.16932q-21.46132-71.36661-75.50078-131.19453Q840.12953,324.072,746.57887,284.99828q-93.55062-39.11121-237.72854-39.111-115.01212,0-234.42667,31.019Q154.8991,308.03794,66.99819,365.5432l76.30824,209.504-40.89767,33.13088,59.31408,17.43149Q249.55,579.64267,321.74933,558.8508q72.08879-20.67945,153.2761-20.6792,81.11376,0,122.82646,39.111,41.71233,39.22353,41.67588,94.40608,0,66.75861-42.77658,118.53209-42.923,51.8109-94.72454,104.7458-35.98923,36.75089-69.85107,75.89961a544.92018,544.92018,0,0,0-59.72566,84.06636,457.09842,457.09842,0,0,0-41.67588,96.6538q-15.84831,51.81108-15.77511,116.20938c0,13.86128.29335,30.34487,1.10058,49.52575.13528,3.53823.32116,6.98762.53241,10.39363H260.55746l61.19187,41.37984H619.27682a197.6988,197.6988,0,0,1-2.27468-32.21789v-27.64733q0-39.11122,15.77535-77.09847a398.78592,398.78592,0,0,1,39.47447-72.5279,535.71553,535.71553,0,0,1,52.97526-65.55977q29.276-31.13146,56.35056-58.74149,35.98941-36.75108,74.32691-78.22233a614.88,614.88,0,0,0,67.6498-87.43806,491.286,491.286,0,0,0,48.42615-100.17536q19.15042-54.05876,19.22376-118.532Q991.2044,586.53593,969.77948,515.16932Z" transform="translate(-8.7956 -240.68712)"/>
      <path class="cls-2" d="M412.035,523.55662q-80.27087,0-151.47757,20.01324Q189.20555,563.692,102.40865,608.17817L8.7956,356.48884q86.90577-55.68922,204.9916-85.78168,118.01317-30.02,231.67585-30.02,142.48619,0,234.939,37.85129Q772.855,316.3897,826.36887,374.32677q53.405,57.97345,74.6149,126.96862,21.10089,69.06771,21.17349,131.39183,0,62.43276-18.99819,114.714a471.33761,471.33761,0,0,1-47.858,96.94861A596.81011,596.81011,0,0,1,788.445,928.97138q-37.85128,40.13535-73.45471,75.70258-26.75694,26.7569-55.68925,56.84948a520.61621,520.61621,0,0,0-52.35366,63.44793,383.52106,383.52106,0,0,0-39.01154,70.19172q-15.5537,36.76357-15.59008,74.61486v26.7569a187.45,187.45,0,0,0,2.248,31.18029H260.55746a311.69316,311.69316,0,0,1-5.58353-50.10581c-.79756-18.5632-1.08759-34.51573-1.08759-47.93051q0-62.32413,15.59008-112.46616a437.60107,437.60107,0,0,1,41.18685-93.54051A527.60233,527.60233,0,0,1,369.688,942.31362q33.39182-37.85129,69.03146-73.45473,51.22974-51.22974,93.613-101.37177,42.202-50.14221,42.27444-114.71412,0-53.51381-41.18685-91.36509Q492.19709,523.55662,412.035,523.55662Z" transform="translate(-8.7956 -240.68712)"/>
    </g>
    <g>
      <path class="cls-1" d="M639.638,1657.89686q0,80.4624-52.09546,124.232-52.09527,43.88868-117.8093,43.82913-65.833,0-117.86895-43.82913-52.00609-43.79936-52.03593-124.232,0-80.37306,52.03691-124.23288c53.46049-45.11559,132.55085-55.16883,195.14312-23.5038C602.54905,1538.25782,639.63792,1595.31719,639.638,1657.89686Z" transform="translate(-8.7956 -240.68712)"/>
      <path class="cls-2" d="M581.43545,1657.89686q0,80.4624-52.09546,124.232-52.09527,43.88868-117.8093,43.82913-65.833,0-117.86895-43.82913-52.00609-43.79936-52.03593-124.232,0-80.37324,52.03593-124.23215,52.09542-43.79934,117.86895-43.82912,65.7437,0,117.8093,43.82912Q581.43538,1577.55339,581.43545,1657.89686Z" transform="translate(-8.7956 -240.68712)"/>
    </g>
  </g>
</svg>
