<svg id="Layer_1" data-name="Layer 1" xmlns="http://www.w3.org/2000/svg" width="2194.00008" height="1953.84933" viewBox="0 0 2194.00008 1953.84933">
  <defs>
    <style>
      .cls-1 {
        fill: #61dafb;
      }
    </style>
  </defs>
  <g>
    <path class="cls-1" d="M2193.99992,1250.22365c0-145.34244-182.01351-283.08236-461.07082-368.49895,64.398-284.424,35.7766-510.71095-90.336-583.15855-29.06849-16.9939-63.05615-25.04361-100.17459-25.04361v99.72725c20.57143,0,37.11816,4.02487,50.98176,11.62739,60.82011,34.88219,87.20546,167.70277,66.634,338.53609-4.91918,42.03748-12.96913,86.31106-22.80748,131.479-87.65256-21.466-183.35507-38.01264-283.97676-48.74559-60.373-82.73339-122.98206-157.86426-186.03834-223.60375,145.78967-135.50389,282.63519-209.74032,375.65443-209.74032V273.07534c-122.98206,0-283.97676,87.65266-446.76026,239.70317-162.7835-151.15614-323.7782-237.91437-446.76027-237.91437v99.72728c92.572,0,229.86463,73.78924,375.6543,208.39873A2112.217,2112.217,0,0,0,840.30331,806.14666c-101.06892,10.73295-196.7713,27.27968-284.424,49.19282-10.28571-44.72075-17.8883-88.09986-23.25484-129.69017-21.01881-170.83325,4.91931-303.6539,65.29232-338.9833,13.41623-8.04975,30.85729-11.62739,51.42886-11.62739V275.31137c-37.5654,0-71.5532,8.04975-101.06892,25.04362C422.6114,372.80262,394.43738,598.64241,459.28247,882.17193,181.11942,968.03576.00038,1105.32845.00038,1250.22365c0,145.34244,182.01344,283.08229,461.07089,368.499-64.39785,284.424-35.7766,510.71088,90.336,583.15855,29.06849,16.99383,63.05628,25.04351,100.62169,25.04351,122.98206,0,283.97676-87.65269,446.76026-239.70324,162.7835,151.15608,323.7782,237.91431,446.7604,237.91431,37.56554,0,71.5532-8.04969,101.06879-25.04365,125.66519-72.44767,153.83948-298.28732,88.9944-581.817,277.26865-85.41665,458.38768-223.15651,458.38768-368.05171ZM1611.7357,951.93626c-16.54673,57.68974-37.11817,117.16835-60.373,176.6469-18.3354-35.7766-37.56554-71.5532-58.58421-107.3298-20.57157-35.7766-42.48472-70.6588-64.39786-104.64653,63.50352,9.39138,124.771,21.01874,183.35508,35.32937Zm-204.821,476.27592c-34.88213,60.373-70.65873,117.61552-107.777,170.83332-66.63389,5.81364-134.16225,8.94415-202.13785,8.94415-67.52836,0-135.05672-3.13051-201.24337-8.49692q-55.67726-79.82649-108.22427-169.93884-50.9817-87.87631-93.01911-177.98853c27.72692-59.92578,59.03145-119.85156,92.572-178.43577,34.88213-60.373,70.65873-117.61558,107.777-170.83325,66.63389-5.81371,134.16225-8.94415,202.13785-8.94415,67.52836,0,135.05672,3.13044,201.24337,8.49692q55.67725,79.82649,108.22427,169.93891,50.9817,87.87631,93.01911,177.98853c-28.174,59.92578-59.03145,119.85156-92.572,178.43577Zm144.448-58.137c24.14931,59.92577,44.72075,119.85155,61.71458,177.98853-58.58408,14.31069-120.29879,26.38521-184.24955,35.7766,21.91314-34.435,43.82628-69.7644,64.39786-105.98824,20.57157-35.7766,39.80144-72.00043,58.13711-107.777Zm-453.46838,477.17045a1843.67091,1843.67091,0,0,1-124.32363-143.1064c40.24868,1.7888,81.39182,3.13051,122.98206,3.13051,42.03748,0,83.62786-.89447,124.32363-3.13051A1745.55191,1745.55191,0,0,1,1097.89431,1847.24566ZM765.172,1583.84047c-63.50352-9.39138-124.77087-21.0188-183.35508-35.32936,16.54674-57.68974,37.11817-117.16842,60.373-176.647,18.33553,35.7766,37.5654,71.5532,58.58421,107.3298S743.25882,1549.85268,765.172,1583.84047Zm330.48631-930.63883A1843.67967,1843.67967,0,0,1,1219.9819,796.308c-40.24867-1.7888-81.39182-3.13044-122.98206-3.13044-42.03748,0-83.62786.8944-124.32363,3.13044A1745.56751,1745.56751,0,0,1,1095.65827,653.20164ZM764.72472,916.60683c-21.91314,34.435-43.82628,69.7644-64.39785,105.98816-20.57157,35.7766-39.80144,71.55313-58.137,107.32973-24.14918-59.92577-44.72075-119.85162-61.71458-177.98859,58.58421-13.86346,120.29879-25.93805,184.24954-35.32937ZM360.00194,1476.51054c-158.31143-67.52836-260.722-156.07539-260.722-226.287s102.41049-159.20589,260.722-226.287c38.45987-16.54666,80.49735-31.30452,123.87653-45.168,25.49088,87.6527,59.03144,178.883,100.62169,272.34934C543.357,1344.137,510.26368,1434.92016,485.22,1522.12562c-44.27352-13.86346-86.311-29.06849-125.2181-45.61522ZM600.59952,2115.57c-60.82025-34.88213-87.20546-167.70281-66.63389-338.536,4.91931-42.03748,12.969-86.311,22.80761-131.479,87.65269,21.46591,183.35507,38.01264,283.97676,48.74559,60.373,82.73339,122.98206,157.8642,186.03835,223.60375-145.78968,135.50382-282.6352,209.74029-375.6543,209.74029-20.12434-.44723-37.11817-4.47207-50.5344-12.07466Zm1060.7761-340.772c21.01881,170.83332-4.91917,303.65387-65.29218,338.98323-13.41623,8.04968-30.85743,11.62742-51.42887,11.62742-92.572,0-229.86462-73.78923-375.65429-208.39872a2112.22415,2112.22415,0,0,0,184.69664-223.15651c101.06892-10.73295,196.7713-27.27969,284.42386-49.19283C1648.4065,1689.82857,1656.45618,1733.20761,1661.37562,1774.798Zm172.17489-298.28745c-38.45974,16.54673-80.49735,31.30452-123.87653,45.168-25.49088-87.6527-59.03145-178.883-100.62169-272.34934,41.14314-93.0191,74.23634-183.80231,99.28012-271.00777,44.27365,13.86346,86.311,29.06849,125.6652,45.61515,158.31156,67.52829,260.72191,156.07546,260.72191,226.287-.44709,70.21164-102.85772,159.2059-261.16928,226.287Z" transform="translate(-0.00038 -273.07534)"/>
    <circle class="cls-1" cx="1096.55236" cy="977.14833" r="204.37387"/>
  </g>
</svg>
