<svg id="Layer_1" data-name="Layer 1" xmlns="http://www.w3.org/2000/svg" width="2131.60085" height="1898.28019" viewBox="0 0 2131.60085 1898.28019">
  <defs>
    <style>
      .cls-1 {
        fill: #6b7280;
      }
    </style>
  </defs>
  <g>
    <path class="cls-1" d="M2162.79989,1241.8683c0-141.20877-176.83688-275.03125-447.95757-358.01853,62.56645-276.33473,34.75908-496.18589-87.76674-566.573-28.24175-16.51058-61.26278-24.33135-97.32554-24.33135v96.89092c19.98637,0,36.0625,3.91041,49.5318,11.2967,59.09034,33.89012,84.72527,162.93317,64.7389,328.90784-4.77927,40.8419-12.60027,83.8563-22.15881,127.7396-85.15964-20.85546-178.1403-36.93152-275.90022-47.35922-58.656-80.38038-119.48435-153.37447-180.74726-217.24427,141.64329-131.65,274.59681-203.77513,364.97051-203.77513V292.51092c-119.48435,0-275.90022,85.15974-434.054,232.88581-158.1538-146.85714-314.56968-231.14788-434.054-231.14788V391.1398c89.93918,0,223.32708,71.69061,364.97037,202.47169A2052.14542,2052.14542,0,0,0,847.60357,810.42124c-98.19443,10.4277-191.17495,26.50383-276.33473,47.79374-9.99318-43.44886-17.37954-85.59423-22.59346-126.00168-20.421-165.9746,4.7794-295.01772,63.43535-329.34232,13.03466-7.82081,29.97969-11.2967,49.96619-11.2967V294.68336c-36.497,0-69.51817,7.82081-98.19444,24.33135-122.0913,70.38716-149.464,289.80387-86.46319,565.26958C207.16743,967.70608,31.19958,1101.094,31.19958,1241.8683c0,141.20878,176.83682,275.03119,447.95764,358.01853-62.56633,276.33473-34.75909,496.18583,87.76673,566.573,28.24176,16.51051,61.26291,24.33125,97.75992,24.33125,119.48435,0,275.90022-85.15978,434.054-232.88588,158.1538,146.85707,314.56968,231.14782,434.05416,231.14782,36.49714,0,69.51816-7.82074,98.1943-24.33138,122.09117-70.3872,149.46416-289.80377,86.46332-565.26961,269.3829-82.98734,445.35075-216.80975,445.35075-357.584ZM1597.09577,952.06446c-16.07613,56.049-36.0625,113.836-58.656,171.62291-17.81392-34.75909-36.49714-69.51817-56.918-104.27725-19.9865-34.75908-41.27641-68.6492-62.56632-101.67029,61.69742,9.12428,121.22241,20.421,178.1403,34.32457Zm-198.9957,462.73023c-33.89,58.656-68.64913,114.27043-104.71176,165.97467-64.73877,5.6483-130.34656,8.68977-196.38887,8.68977-65.6078,0-131.21559-3.04147-195.51984-8.25526q-54.09375-77.55617-105.14628-165.10564-49.53174-85.377-90.37357-172.92638c26.93835-58.22144,57.35254-116.44288,89.93918-173.3609,33.89006-58.656,68.64914-114.2705,104.71177-165.97461,64.73876-5.64836,130.34656-8.68977,196.38887-8.68977,65.60779,0,131.21559,3.04141,195.51984,8.25526q54.09375,77.55615,105.14628,165.1057,49.53173,85.377,90.37356,172.92639c-27.37272,58.22144-57.35254,116.44287-89.93918,173.3609Zm140.33974-56.48351c23.46249,58.22143,43.44886,116.44287,59.95937,172.92638-56.91789,13.90369-116.87739,25.6348-179.00933,34.75908,21.28991-33.45567,42.57982-67.78024,62.56632-102.97383,19.9865-34.75909,38.66946-69.95268,56.48364-104.71177ZM1097.86847,1821.9105a1791.23181,1791.23181,0,0,1-120.78776-139.03634c39.104,1.73793,79.077,3.04148,119.48434,3.04148,40.8419,0,81.24941-.869,120.78776-3.04148A1695.90756,1695.90756,0,0,1,1097.86847,1821.9105ZM774.609,1565.99678c-61.69742-9.12429-121.22227-20.421-178.1403-34.32457,16.07613-56.049,36.0625-113.836,58.656-171.623,17.814,34.75908,36.497,69.51816,56.918,104.27724S753.31911,1532.97562,774.609,1565.99678Zm321.087-904.17067a1791.24276,1791.24276,0,0,1,120.78776,139.03633c-39.104-1.73793-79.077-3.04141-119.48434-3.04141-40.8419,0-81.24941.869-120.78776,3.04141A1695.9174,1695.9174,0,0,1,1095.696,661.82611ZM774.17451,917.73983c-21.28991,33.4556-42.57983,67.78024-62.56632,102.97377-19.9865,34.75908-38.66946,69.5181-56.48351,104.27718-23.46236-58.22144-43.44886-116.44294-59.95937-172.92645,56.918-13.46917,116.87739-25.20035,179.00933-34.32457ZM380.96238,1461.71939c-153.80891-65.60779-253.30683-151.63647-253.30683-219.85122s99.49785-154.67795,253.30683-219.85123c37.366-16.07606,78.20794-30.41419,120.35338-43.88337,24.7659,85.15978,57.35254,173.79542,97.75992,264.6035-39.973,90.37356-72.12512,178.57481-96.45651,263.30008-43.01434-13.46918-83.85623-28.24176-121.65679-44.31789Zm233.75478,620.88409c-59.09047-33.89005-84.72526-162.9332-64.73876-328.90774,4.7794-40.84189,12.60014-83.85623,22.15894-127.7396,85.15978,20.8554,178.1403,36.93153,275.90022,47.35922,58.65595,80.38038,119.48435,153.3744,180.74726,217.24427-141.64329,131.65-274.59681,203.7751-364.97037,203.7751-19.552-.43452-36.0625-4.34489-49.09716-11.73125ZM1645.32389,1751.5233c20.421,165.97467-4.77927,295.01769-63.43522,329.34226-13.03466,7.82074-29.97982,11.29673-49.96618,11.29673-89.93918,0-223.32708-71.69061-364.97037-202.47169a2052.15249,2052.15249,0,0,0,179.44371-216.80975c98.19443-10.4277,191.175-26.50383,276.3346-47.79374C1632.72362,1668.97048,1640.54436,1711.11579,1645.32389,1751.5233ZM1812.602,1461.71939c-37.3659,16.07613-78.20793,30.4142-120.35337,43.88337-24.7659-85.15978-57.35254-173.79541-97.75992-264.60349,39.973-90.37356,72.125-178.57481,96.4565-263.30008,43.01448,13.46917,83.85624,28.24176,122.09118,44.31782,153.809,65.60773,253.30676,151.63654,253.30676,219.85116-.43438,68.21475-99.93236,154.67794-253.74141,219.85122Z" transform="translate(-31.19958 -292.51092)"/>
    <circle class="cls-1" cx="1065.36548" cy="949.3574" r="198.56131"/>
  </g>
</svg>
