<svg id="Layer_1" data-name="Layer 1" xmlns="http://www.w3.org/2000/svg" xmlns:xlink="http://www.w3.org/1999/xlink" width="2500" height="1500.00006" viewBox="0 0 2500 1500.00006">
  <defs>
    <style>
      .cls-1 {
        fill: url(#linear-gradient);
      }
    </style>
    <linearGradient id="linear-gradient" x1="566.74622" y1="1135.92764" x2="567.774" y2="1135.57208" gradientTransform="matrix(2500, 0, 0, -1500.00006, -1416933, 1704370.06771)" gradientUnits="userSpaceOnUse">
      <stop offset="0" stop-color="#2298bd"/>
      <stop offset="1" stop-color="#0ed7b5"/>
    </linearGradient>
  </defs>
  <path class="cls-1" d="M1250,2Q750.00484,2,625,502,812.5,251.9951,1062.5,314.5c95.08789,23.76951,163.05663,92.76368,238.291,169.1211C1423.34968,608.02538,1565.18549,752,1875,752q499.99506,0,625-500-187.5,250.00485-437.5,187.5c-95.08789-23.76951-163.0567-92.76368-238.291-169.1211C1701.65032,145.97461,1559.81451,2,1250,2ZM625,752Q125.0049,752,0,1252q187.5-250.0049,437.5-187.5c95.08789,23.76951,163.05667,92.76368,238.291,169.1211C798.3496,1358.02534,940.18556,1502.00006,1250,1502.00006q499.99506,0,625-500-187.5,250.0049-437.5,187.5c-95.08789-23.76951-163.0567-92.76368-238.291-169.1211C1076.6504,895.9746,934.81444,752,625,752Z" transform="translate(0 -2)"/>
</svg>
